<svg width="163" height="59" viewBox="0 0 163 59" fill="none" xmlns="http://www.w3.org/2000/svg">
<path d="M56.3 15.34C56.3 13.36 56.9 11.82 58.1 10.72C59.3 9.62 60.96 9.07 63.08 9.07C65.22 9.07 67.42 9.27 69.68 9.67L68.99 14.95C66.49 14.45 64.85 14.2 64.07 14.2C63.29 14.2 62.9 14.44 62.9 14.92C62.9 15.1 62.96 15.23 63.08 15.31C63.2 15.37 63.29 15.42 63.35 15.46C63.41 15.5 63.52 15.55 63.68 15.61C63.86 15.67 64 15.73 64.1 15.79C64.22 15.83 64.58 15.98 65.18 16.24C65.8 16.48 66.26 16.68 66.56 16.84C66.88 16.98 67.31 17.22 67.85 17.56C69.41 18.58 70.19 20.08 70.19 22.06C70.19 24.04 69.6 25.58 68.42 26.68C67.24 27.76 65.54 28.3 63.32 28.3C61.12 28.3 58.96 28.03 56.84 27.49L57.26 22.42C59.94 23.1 61.75 23.44 62.69 23.44C63.31 23.44 63.62 23.22 63.62 22.78C63.62 22.58 63.54 22.42 63.38 22.3C63.24 22.18 63.02 22.05 62.72 21.91C62.44 21.77 62.02 21.59 61.46 21.37C60.9 21.13 60.43 20.93 60.05 20.77C59.67 20.59 59.22 20.32 58.7 19.96C57.1 18.86 56.3 17.32 56.3 15.34ZM76.682 18.91C76.682 20.43 76.852 21.54 77.192 22.24C77.532 22.92 78.102 23.26 78.902 23.26C79.702 23.26 81.032 23.04 82.892 22.6L83.852 27.37C81.892 27.99 80.002 28.3 78.182 28.3C75.402 28.3 73.372 27.51 72.092 25.93C70.832 24.33 70.202 21.96 70.202 18.82C70.202 15.66 70.862 13.25 72.182 11.59C73.502 9.91 75.652 9.07 78.632 9.07C80.372 9.07 82.112 9.41 83.852 10.09L82.862 15.43C80.882 14.85 79.522 14.56 78.782 14.56C78.062 14.56 77.532 14.91 77.192 15.61C76.852 16.29 76.682 17.39 76.682 18.91ZM99.9573 18.28C99.9573 24.76 96.9973 28 91.0773 28H83.8473V9.37H91.2273C94.4073 9.37 96.6573 10.14 97.9773 11.68C99.2973 13.2 99.9573 15.4 99.9573 18.28ZM90.9873 23.32C92.0073 23.32 92.6673 22.97 92.9673 22.27C93.2673 21.57 93.4173 20.41 93.4173 18.79C93.4173 17.15 93.2473 15.99 92.9073 15.31C92.5873 14.61 91.9073 14.26 90.8673 14.26H90.2373V23.32H90.9873Z" fill="#FF0000"/>
<path d="M77.48 50H71.81V41.12H71.66L69.89 50H64.64L62.9 41.12H62.75V50H57.14L57.86 31.37H65.84L67.25 39.8H67.52L68.9 31.37H76.79L77.48 50ZM78.3172 40.58C78.3172 37.24 78.9772 34.82 80.2972 33.32C81.6372 31.82 83.8272 31.07 86.8672 31.07C89.9272 31.07 92.1072 31.81 93.4072 33.29C94.7272 34.77 95.3872 37.18 95.3872 40.52C95.3872 43.84 94.7072 46.3 93.3472 47.9C92.0072 49.5 89.8272 50.3 86.8072 50.3C83.8072 50.3 81.6372 49.51 80.2972 47.93C78.9772 46.35 78.3172 43.9 78.3172 40.58ZM88.5472 37.01C88.2872 36.49 87.7272 36.23 86.8672 36.23C86.0072 36.23 85.4572 36.48 85.2172 36.98C84.9772 37.48 84.8572 38.55 84.8572 40.19V41.51C84.8572 43.19 84.9872 44.28 85.2472 44.78C85.5072 45.28 86.0772 45.53 86.9572 45.53C87.8372 45.53 88.3872 45.29 88.6072 44.81C88.8272 44.33 88.9372 43.26 88.9372 41.6V40.22C88.9372 38.58 88.8072 37.51 88.5472 37.01ZM109.318 36.44H105.358V50H98.9684V36.44H94.7984L95.0684 31.37H109.678L109.318 36.44ZM109.066 40.58C109.066 37.24 109.726 34.82 111.046 33.32C112.386 31.82 114.576 31.07 117.616 31.07C120.676 31.07 122.856 31.81 124.156 33.29C125.476 34.77 126.136 37.18 126.136 40.52C126.136 43.84 125.456 46.3 124.096 47.9C122.756 49.5 120.576 50.3 117.556 50.3C114.556 50.3 112.386 49.51 111.046 47.93C109.726 46.35 109.066 43.9 109.066 40.58ZM119.296 37.01C119.036 36.49 118.476 36.23 117.616 36.23C116.756 36.23 116.206 36.48 115.966 36.98C115.726 37.48 115.606 38.55 115.606 40.19V41.51C115.606 43.19 115.736 44.28 115.996 44.78C116.256 45.28 116.826 45.53 117.706 45.53C118.586 45.53 119.136 45.29 119.356 44.81C119.576 44.33 119.686 43.26 119.686 41.6V40.22C119.686 38.58 119.556 37.51 119.296 37.01ZM141.777 37.37C141.777 38.57 141.577 39.53 141.177 40.25C140.797 40.95 140.197 41.57 139.377 42.11L142.167 50H135.537L133.677 43.58H133.197V50H127.047V31.37H134.997C137.317 31.37 139.027 31.86 140.127 32.84C141.227 33.8 141.777 35.31 141.777 37.37ZM133.827 39.92C134.287 39.92 134.607 39.79 134.787 39.53C134.987 39.25 135.087 38.77 135.087 38.09C135.087 37.41 134.987 36.94 134.787 36.68C134.587 36.42 134.277 36.29 133.857 36.29H133.077V39.92H133.827ZM142.152 37.34C142.152 35.36 142.752 33.82 143.952 32.72C145.152 31.62 146.812 31.07 148.932 31.07C151.072 31.07 153.272 31.27 155.532 31.67L154.842 36.95C152.342 36.45 150.702 36.2 149.922 36.2C149.142 36.2 148.752 36.44 148.752 36.92C148.752 37.1 148.812 37.23 148.932 37.31C149.052 37.37 149.142 37.42 149.202 37.46C149.262 37.5 149.372 37.55 149.532 37.61C149.712 37.67 149.852 37.73 149.952 37.79C150.072 37.83 150.432 37.98 151.032 38.24C151.652 38.48 152.112 38.68 152.412 38.84C152.732 38.98 153.162 39.22 153.702 39.56C155.262 40.58 156.042 42.08 156.042 44.06C156.042 46.04 155.452 47.58 154.272 48.68C153.092 49.76 151.392 50.3 149.172 50.3C146.972 50.3 144.812 50.03 142.692 49.49L143.112 44.42C145.792 45.1 147.602 45.44 148.542 45.44C149.162 45.44 149.472 45.22 149.472 44.78C149.472 44.58 149.392 44.42 149.232 44.3C149.092 44.18 148.872 44.05 148.572 43.91C148.292 43.77 147.872 43.59 147.312 43.37C146.752 43.13 146.282 42.93 145.902 42.77C145.522 42.59 145.072 42.32 144.552 41.96C142.952 40.86 142.152 39.32 142.152 37.34Z" fill="white"/>
<path d="M48.866 25.451L47.742 22.524L45.749 17.3333C44.038 12.8781 39.957 10 35.35 10H22.65C18.044 10 13.962 12.8781 12.251 17.3333L10.258 22.524L9.134 25.451C6.722 26.4062 5 28.8187 5 31.6667V36.6667C5 38.3458 5.616 39.8615 6.6 41.0344V46.6667C6.6 48.5073 8.033 50 9.8 50H13C14.767 50 16.2 48.5073 16.2 46.6667V43.3333H41.8V46.6667C41.8 48.5073 43.233 50 45 50H48.2C49.967 50 51.4 48.5073 51.4 46.6667V41.0344C52.384 39.8625 53 38.3469 53 36.6667V31.6667C53 28.8187 51.278 26.4062 48.866 25.451ZM18.193 19.8094C18.922 17.9115 20.687 16.6667 22.65 16.6667H35.35C37.313 16.6667 39.078 17.9115 39.807 19.8094L41.8 25H16.2L18.193 19.8094ZM13 36.6458C11.08 36.6458 9.8 35.3167 9.8 33.3229C9.8 31.3292 11.08 30 13 30C14.92 30 17.8 32.9906 17.8 34.9844C17.8 36.9781 14.92 36.6458 13 36.6458ZM45 36.6458C43.08 36.6458 40.2 36.9781 40.2 34.9844C40.2 32.9906 43.08 30 45 30C46.92 30 48.2 31.3292 48.2 33.3229C48.2 35.3167 46.92 36.6458 45 36.6458Z" fill="white"/>
</svg>
